<svg width="842" height="596" viewBox="0 0 842 596" fill="none" xmlns="http://www.w3.org/2000/svg">
<path d="M260.561 345.596C260.54 345.587 260.51 345.575 260.469 345.558C260.469 345.558 260.477 345.558 260.479 345.559C259.432 345.093 258.393 344.426 257.403 343.489C256.147 342.297 255.038 340.763 254.114 339.239C254.036 339.111 253.96 338.982 253.884 338.854C253.726 338.583 253.571 338.314 253.425 338.046C253.353 337.916 253.28 337.784 253.21 337.652C251.847 335.108 251.071 332.948 251.071 332.948C251.071 332.948 251.077 332.956 251.081 332.966C250.852 332.387 250.628 331.806 250.411 331.226C246.964 321.98 244.87 312.247 242.513 302.679C251.232 301.109 259.042 296.896 263.027 288.149C267.373 278.608 264.418 266.969 256.289 260.416C249.434 254.889 240.713 253.965 232.211 253.965C225.506 253.965 200.883 253.965 195.275 253.965C194.205 253.965 187.673 253.915 187.66 255.867V347.186C187.64 349.909 202.855 350.019 202.877 347.186C203.063 320.555 202.877 257.769 202.877 257.769C202.877 257.769 230.66 257.769 232.959 257.769C233.406 257.769 233.873 257.739 234.324 257.768C234.482 257.826 235.146 257.972 235.373 258.044C244.135 260.834 249.859 269.673 249.846 278.696C249.838 283.841 248.116 288.874 244.805 292.83C243.162 294.788 241.172 296.544 238.944 297.801C237.897 298.39 236.727 298.936 235.579 299.294C235.36 299.362 234.788 299.461 234.487 299.533C229.841 299.533 225.194 299.533 220.548 299.533C219.382 299.533 212.939 299.456 212.939 301.435C212.939 303.369 219.72 303.338 220.548 303.338H227.448C229.6 312.096 231.585 320.943 234.552 329.466C236.657 335.511 239.425 342.75 245.109 346.317C251.338 350.228 262.187 350.333 268.656 346.958C269.787 346.368 270.802 345.639 271.73 344.805C271.72 344.812 271.703 344.822 271.693 344.827C270.538 345.391 265.458 347.721 260.561 345.596Z" fill="white"/>
<path d="M287.323 260.255C284.177 263.651 282.682 267.549 281.104 271.749C277.459 281.439 275.311 291.66 272.745 301.668C270.29 311.248 268.196 320.995 264.852 330.32C263.87 333.062 262.782 335.822 261.352 338.378C263.37 339.639 270.938 341.489 276.653 335.774C278.778 333.649 279.278 332.149 280.7 328.544C283.704 319.771 285.677 310.634 287.975 301.668C290.43 292.087 292.524 282.34 295.868 273.015C297.157 269.419 298.62 265.79 300.809 262.633C301.321 261.894 301.407 261.912 302.014 261.242C296.683 256.338 288.544 259.099 287.323 260.255Z" fill="white"/>
<path d="M443.266 345.405C443.161 345.336 442.049 345.058 441.073 344.28C439.876 343.327 438.862 342.14 437.971 340.905C435.674 337.725 434.166 334.024 432.846 330.354C429.475 320.984 427.389 311.172 424.983 301.527C422.653 292.179 420.606 282.697 417.434 273.586C415.33 267.542 412.561 260.303 406.877 256.735C400.647 252.824 389.801 252.719 383.33 256.094C382.195 256.686 381.174 257.421 380.242 258.259C380.262 258.248 380.285 258.234 380.303 258.226C381.707 257.537 388.953 254.218 394.588 259.565C398.453 263.23 400.92 270.104 400.92 270.104C400.92 270.104 400.906 270.081 400.883 270.041C401.119 270.635 401.352 271.23 401.572 271.826C404.92 280.802 406.99 290.236 409.265 299.533C405.242 299.533 401.216 299.533 397.191 299.533C396.025 299.533 389.582 299.456 389.582 301.435C389.582 303.369 396.365 303.338 397.191 303.338C401.527 303.338 405.863 303.338 410.197 303.338L410.22 303.427C412.827 314.145 415.062 325.245 419.603 335.32C421.197 338.849 423.148 342.552 426.15 345.091C430.097 348.426 435.234 348.942 440.213 349.088C441.375 349.122 447.826 349.142 447.826 347.186C447.826 346.018 445.394 345.577 443.266 345.405Z" fill="white"/>
<path d="M351.935 345.596C351.915 345.587 351.884 345.574 351.845 345.558C351.845 345.558 351.851 345.558 351.855 345.559C350.806 345.093 349.769 344.426 348.779 343.489C347.523 342.296 346.414 340.763 345.49 339.239C345.41 339.111 345.336 338.984 345.261 338.855C345.101 338.584 344.947 338.314 344.8 338.046C344.728 337.916 344.655 337.784 344.585 337.652C343.222 335.108 342.448 332.948 342.448 332.948C342.448 332.948 342.45 332.956 342.458 332.966C342.228 332.387 342.003 331.806 341.786 331.226C338.202 321.609 336.083 311.464 333.604 301.527C331.274 292.179 329.227 282.697 326.055 273.586C323.951 267.542 321.182 260.303 315.5 256.735C309.268 252.824 298.42 252.719 291.951 256.094C290.814 256.686 289.795 257.421 288.863 258.259C288.883 258.248 288.906 258.234 288.924 258.226C290.328 257.537 297.574 254.218 303.209 259.565C307.072 263.23 309.541 270.104 309.541 270.104C309.541 270.104 309.527 270.081 309.504 270.041C309.74 270.636 309.971 271.231 310.193 271.826C313.777 281.443 315.896 291.588 318.373 301.526C320.705 310.873 322.752 320.356 325.924 329.466C328.029 335.511 330.797 342.75 336.479 346.317C342.711 350.228 353.559 350.333 360.028 346.958C361.159 346.368 362.176 345.639 363.104 344.805C363.09 344.812 363.075 344.822 363.063 344.827C361.912 345.392 356.834 347.721 351.935 345.596Z" fill="white"/>
<path d="M374.087 267.684C373.519 269.001 373.003 270.359 372.48 271.749C368.835 281.439 366.687 291.66 364.123 301.668C361.668 311.248 359.574 320.995 356.23 330.32C354.941 333.917 353.478 337.545 351.289 340.702C350.777 341.44 350.678 341.425 350.07 342.093C355.343 346.95 363.093 344.199 364.453 343.021C367.619 339.623 369.408 335.804 370.996 331.586C374.639 321.896 376.787 311.674 379.353 301.668C381.808 292.087 383.904 282.34 387.246 273.015C388.26 270.186 389.391 267.342 390.891 264.718C387.591 263.087 380.091 262.149 374.087 267.684Z" fill="white"/>
<path d="M499.5 260.38V271.11H478.572V348.908H469.26V271.11H448.332V260.38H499.5Z" fill="white"/>
<path d="M509.291 260.38H518.603V348.908H509.291V260.38Z" fill="white"/>
<path d="M588.876 260.38C586.444 269.748 584.108 278.434 581.868 286.44C579.692 294.36 577.548 301.897 575.436 309.051C573.324 316.205 571.212 323.06 569.1 329.618C567.052 336.09 564.94 342.52 562.764 348.908H554.028C551.852 342.52 549.708 336.09 547.596 329.618C545.548 323.06 543.436 316.205 541.26 309.051C539.148 301.897 536.972 294.36 534.732 286.44C532.492 278.434 530.188 269.748 527.82 260.38H538.092C541.548 273.836 544.94 286.78 548.268 299.214C551.596 311.648 555.02 323.316 558.54 334.217C562.06 323.401 565.484 311.776 568.812 299.342C572.14 286.823 575.5 273.836 578.892 260.38H588.876Z" fill="white"/>
<path d="M598.092 348.908V260.38H638.7V270.983H607.404V297.298H635.244V307.646H607.404V338.305H641.1V348.908H598.092Z" fill="white"/>
</svg>
