<svg width="453.44003" height="95.701836" viewBox="0 0 453.44003 95.701836" fill="none" xmlns="http://www.w3.org/2000/svg">
  <path
     d="m 72.90102,91.920916 c -0.021,-0.009 -0.051,-0.021 -0.092,-0.038 0,0 0.008,0 0.01,0.001 -1.047,-0.466 -2.086,-1.133 -3.076,-2.07 -1.256,-1.192 -2.365,-2.726 -3.289,-4.25 -0.078,-0.128 -0.154,-0.257 -0.23,-0.385 -0.158,-0.271 -0.313,-0.54 -0.459,-0.808 -0.072,-0.13 -0.145,-0.262 -0.215,-0.394 -1.363,-2.544 -2.139,-4.704 -2.139,-4.704 0,0 0.006,0.008 0.01,0.018 -0.229,-0.579 -0.453,-1.16 -0.67,-1.74 -3.447,-9.246 -5.541,-18.979 -7.898,-28.547 8.719,-1.57 16.529,-5.783 20.514,-14.53 4.346,-9.541 1.391,-21.18 -6.738,-27.7329998 -6.855,-5.527 -15.576,-6.45099995 -24.078,-6.45099995 -6.705,0 -31.328,0 -36.9360003,0 -1.07,0 -7.602,-0.05 -7.614999999887,1.90199995 V 93.510916 c -0.02000000011,2.723 15.195000299887,2.833 15.217000299887,0 0.186,-26.631 0,-89.4169998 0,-89.4169998 0,0 27.783,0 30.082,0 0.447,0 0.914,-0.03 1.365,-10e-4 0.158,0.058 0.822,0.204 1.049,0.276 8.762,2.79 14.486,11.6289998 14.473,20.6519998 -0.008,5.145 -1.73,10.178 -5.041,14.134 -1.643,1.958 -3.633,3.714 -5.861,4.971 -1.047,0.589 -2.217,1.135 -3.365,1.493 -0.219,0.068 -0.791,0.167 -1.092,0.239 -4.646,0 -9.293,0 -13.939,0 -1.166,0 -7.609,-0.077 -7.609,1.902 0,1.934 6.781,1.903 7.609,1.903 h 6.9 c 2.152,8.758 4.137,17.605 7.104,26.128 2.105,6.045 4.873,13.284 10.557,16.851 6.229,3.911 17.078,4.016 23.547,0.641 1.131,-0.59 2.146,-1.319 3.074,-2.153 -0.01,0.007 -0.027,0.017 -0.037,0.022 -1.155,0.564 -6.235,2.894 -11.132,0.769 z"
     fill="#ffffff"
 />
  <path
     d="m 99.66302,6.5799162 c -3.146,3.396 -4.641,7.2939998 -6.219,11.4939998 -3.645,9.69 -5.793,19.911 -8.359,29.919 -2.455,9.58 -4.549,19.327 -7.893,28.652 -0.982,2.742 -2.07,5.502 -3.5,8.058 2.018,1.261 9.586,3.111 15.301,-2.604 2.125,-2.125 2.625,-3.625 4.047,-7.23 3.004,-8.773 4.977,-17.91 7.275,-26.876 2.455,-9.581 4.549,-19.328 7.893,-28.653 1.289,-3.596 2.752,-7.225 4.941,-10.3819998 0.512,-0.739 0.598,-0.721 1.205,-1.391 -5.331,-4.904 -13.47,-2.143 -14.691,-0.987 z"
     fill="#ffffff"
/>
  <path
     d="m 255.60602,91.729916 c -0.105,-0.069 -1.217,-0.347 -2.193,-1.125 -1.197,-0.953 -2.211,-2.14 -3.102,-3.375 -2.297,-3.18 -3.805,-6.881 -5.125,-10.551 -3.371,-9.37 -5.457,-19.182 -7.863,-28.827 -2.33,-9.348 -4.377,-18.83 -7.549,-27.941 -2.104,-6.044 -4.873,-13.2829998 -10.557,-16.8509998 -6.23,-3.91099995 -17.076,-4.01599995 -23.547,-0.641 -1.135,0.592 -2.156,1.327 -3.088,2.165 0.02,-0.011 0.043,-0.025 0.061,-0.033 1.404,-0.689 8.65,-4.00799995 14.285,1.339 3.865,3.665 6.332,10.5389998 6.332,10.5389998 0,0 -0.014,-0.023 -0.037,-0.063 0.236,0.594 0.469,1.189 0.689,1.785 3.348,8.976 5.418,18.41 7.693,27.707 -4.023,0 -8.049,0 -12.074,0 -1.166,0 -7.609,-0.077 -7.609,1.902 0,1.934 6.783,1.903 7.609,1.903 4.336,0 8.672,0 13.006,0 l 0.023,0.089 c 2.607,10.718 4.842,21.818 9.383,31.893 1.594,3.529 3.545,7.232 6.547,9.771 3.947,3.335 9.084,3.851 14.063,3.997 1.162,0.034 7.613,0.054 7.613,-1.902 0,-1.168 -2.432,-1.609 -4.56,-1.781 z"
     fill="#ffffff"
 />
  <path
     d="m 164.27502,91.920916 c -0.02,-0.009 -0.051,-0.022 -0.09,-0.038 0,0 0.006,0 0.01,0.001 -1.049,-0.466 -2.086,-1.133 -3.076,-2.07 -1.256,-1.193 -2.365,-2.726 -3.289,-4.25 -0.08,-0.128 -0.154,-0.255 -0.229,-0.384 -0.16,-0.271 -0.314,-0.541 -0.461,-0.809 -0.072,-0.13 -0.145,-0.262 -0.215,-0.394 -1.363,-2.544 -2.137,-4.704 -2.137,-4.704 0,0 0.002,0.008 0.01,0.018 -0.23,-0.579 -0.455,-1.16 -0.672,-1.74 -3.584,-9.617 -5.703,-19.762 -8.182,-29.699 -2.33,-9.348 -4.377,-18.83 -7.549,-27.941 -2.104,-6.044 -4.873,-13.2829998 -10.555,-16.8509998 -6.232,-3.91099995 -17.08,-4.01599995 -23.549,-0.641 -1.137,0.592 -2.156,1.327 -3.088,2.165 0.02,-0.011 0.043,-0.025 0.061,-0.033 1.404,-0.689 8.65,-4.00799995 14.285,1.339 3.863,3.665 6.332,10.5389998 6.332,10.5389998 0,0 -0.014,-0.023 -0.037,-0.063 0.236,0.595 0.467,1.19 0.689,1.785 3.584,9.617 5.703,19.762 8.18,29.7 2.332,9.347 4.379,18.83 7.551,27.94 2.105,6.045 4.873,13.284 10.555,16.851 6.232,3.911 17.08,4.016 23.549,0.641 1.131,-0.59 2.148,-1.319 3.076,-2.153 -0.014,0.007 -0.029,0.017 -0.041,0.022 -1.151,0.565 -6.229,2.894 -11.128,0.769 z"
     fill="#ffffff"
/>
  <path
     d="m 186.42702,14.008916 c -0.568,1.317 -1.084,2.675 -1.607,4.065 -3.645,9.69 -5.793,19.911 -8.357,29.919 -2.455,9.58 -4.549,19.327 -7.893,28.652 -1.289,3.597 -2.752,7.225 -4.941,10.382 -0.512,0.738 -0.611,0.723 -1.219,1.391 5.273,4.857 13.023,2.106 14.383,0.928 3.166,-3.398 4.955,-7.217 6.543,-11.435 3.643,-9.69 5.791,-19.912 8.357,-29.918 2.455,-9.581 4.551,-19.328 7.893,-28.653 1.014,-2.829 2.145,-5.673 3.645,-8.297 -3.3,-1.6309998 -10.8,-2.5689998 -16.804,2.966 z"
     fill="#ffffff"
 />
  <path
     d="M 311.84002,6.7049162 V 17.434916 h -20.928 v 77.798 h -9.312 v -77.798 h -20.928 V 6.7049162 Z"
     fill="#ffffff"
/>
  <path
     d="m 321.63102,6.7049162 h 9.312 V 95.232916 h -9.312 z"
     fill="#ffffff"
/>
  <path
     d="m 401.21602,6.7049162 c -2.432,9.3679998 -4.768,18.0539998 -7.008,26.0599998 -2.176,7.92 -4.32,15.457 -6.432,22.611 -2.112,7.154 -4.224,14.009 -6.336,20.567 -2.048,6.472 -4.16,12.902 -6.336,19.29 h -8.736 c -2.176,-6.388 -4.32,-12.818 -6.432,-19.29 -2.048,-6.558 -4.16,-13.413 -6.336,-20.567 -2.112,-7.154 -4.288,-14.691 -6.528,-22.611 -2.24,-8.006 -4.544,-16.692 -6.912,-26.0599998 h 10.272 c 3.456,13.4559998 6.848,26.3999998 10.176,38.8339998 3.328,12.434 6.752,24.102 10.272,35.003 3.52,-10.816 6.944,-22.441 10.272,-34.875 3.328,-12.519 6.688,-25.506 10.08,-38.9619998 z"
     fill="#ffffff"
 />
  <path
     d="M 410.43202,95.232916 V 6.7049162 h 40.608 V 17.307916 h -31.296 v 26.315 h 27.84 v 10.348 h -27.84 v 30.659 h 33.696 v 10.603 z"
     fill="#ffffff"
/>
</svg>
