<?xml version="1.0" encoding="UTF-8"?>
<svg xmlns="http://www.w3.org/2000/svg" xmlns:xlink="http://www.w3.org/1999/xlink" width="453.440033" height="95.701836" viewBox="0 0 453.440033 95.701836">
<path fill-rule="nonzero" fill="rgb(0%, 0%, 0%)" fill-opacity="1" d="M 72.902344 91.921875 C 72.878906 91.910156 72.851562 91.898438 72.808594 91.882812 C 72.808594 91.882812 72.816406 91.882812 72.820312 91.882812 C 71.773438 91.417969 70.734375 90.75 69.742188 89.8125 C 68.488281 88.621094 67.378906 87.089844 66.453125 85.5625 C 66.375 85.4375 66.300781 85.308594 66.222656 85.179688 C 66.066406 84.90625 65.910156 84.640625 65.765625 84.371094 C 65.691406 84.242188 65.621094 84.109375 65.550781 83.976562 C 64.1875 81.433594 63.410156 79.273438 63.410156 79.273438 C 63.410156 79.273438 63.417969 79.28125 63.421875 79.289062 C 63.191406 78.710938 62.96875 78.132812 62.75 77.550781 C 59.304688 68.304688 57.210938 58.570312 54.851562 49.003906 C 63.570312 47.433594 71.382812 43.222656 75.367188 34.472656 C 79.714844 24.933594 76.757812 13.292969 68.628906 6.742188 C 61.773438 1.214844 53.054688 0.289062 44.550781 0.289062 C 37.847656 0.289062 13.222656 0.289062 7.613281 0.289062 C 6.546875 0.289062 0.0117188 0.238281 0 2.191406 L 0 93.511719 C -0.0195312 96.234375 15.195312 96.34375 15.21875 93.511719 C 15.402344 66.878906 15.21875 4.09375 15.21875 4.09375 C 15.21875 4.09375 43 4.09375 45.300781 4.09375 C 45.746094 4.09375 46.214844 4.0625 46.664062 4.09375 C 46.820312 4.152344 47.484375 4.296875 47.714844 4.367188 C 56.476562 7.160156 62.199219 15.996094 62.1875 25.019531 C 62.179688 30.164062 60.457031 35.199219 57.144531 39.15625 C 55.503906 41.113281 53.511719 42.867188 51.285156 44.125 C 50.238281 44.714844 49.066406 45.261719 47.917969 45.617188 C 47.699219 45.6875 47.128906 45.785156 46.828125 45.859375 C 42.179688 45.859375 37.535156 45.859375 32.886719 45.859375 C 31.722656 45.859375 25.277344 45.78125 25.277344 47.761719 C 25.277344 49.695312 32.058594 49.664062 32.886719 49.664062 L 39.789062 49.664062 C 41.941406 58.421875 43.925781 67.269531 46.890625 75.789062 C 48.996094 81.835938 51.765625 89.074219 57.449219 92.640625 C 63.679688 96.554688 74.527344 96.65625 80.996094 93.28125 C 82.128906 92.691406 83.140625 91.964844 84.070312 91.128906 C 84.058594 91.136719 84.042969 91.148438 84.03125 91.152344 C 82.878906 91.714844 77.796875 94.046875 72.902344 91.921875 Z M 72.902344 91.921875 "/>
<path fill-rule="nonzero" fill="rgb(0%, 0%, 0%)" fill-opacity="1" d="M 99.664062 6.578125 C 96.515625 9.976562 95.023438 13.875 93.445312 18.074219 C 89.800781 27.765625 87.652344 37.984375 85.085938 47.992188 C 82.628906 57.574219 80.535156 67.320312 77.191406 76.644531 C 76.210938 79.386719 75.121094 82.148438 73.691406 84.703125 C 75.710938 85.964844 83.277344 87.8125 88.992188 82.097656 C 91.117188 79.972656 91.617188 78.472656 93.039062 74.867188 C 96.042969 66.097656 98.015625 56.957031 100.316406 47.992188 C 102.769531 38.410156 104.863281 28.664062 108.207031 19.339844 C 109.496094 15.742188 110.960938 12.113281 113.148438 8.957031 C 113.660156 8.21875 113.746094 8.238281 114.355469 7.566406 C 109.023438 2.664062 100.882812 5.425781 99.664062 6.578125 Z M 99.664062 6.578125 "/>
<path fill-rule="nonzero" fill="rgb(0%, 0%, 0%)" fill-opacity="1" d="M 255.605469 91.730469 C 255.5 91.660156 254.390625 91.382812 253.414062 90.605469 C 252.214844 89.652344 251.203125 88.464844 250.3125 87.230469 C 248.015625 84.050781 246.507812 80.347656 245.1875 76.679688 C 241.816406 67.308594 239.730469 57.496094 237.324219 47.851562 C 234.992188 38.503906 232.945312 29.023438 229.773438 19.910156 C 227.671875 13.867188 224.902344 6.628906 219.21875 3.058594 C 212.988281 -0.851562 202.140625 -0.957031 195.671875 2.417969 C 194.535156 3.011719 193.515625 3.746094 192.582031 4.582031 C 192.601562 4.574219 192.625 4.558594 192.644531 4.550781 C 194.046875 3.863281 201.292969 0.542969 206.929688 5.890625 C 210.792969 9.554688 213.261719 16.429688 213.261719 16.429688 C 213.261719 16.429688 213.246094 16.40625 213.222656 16.367188 C 213.460938 16.960938 213.691406 17.554688 213.910156 18.152344 C 217.261719 27.125 219.328125 36.5625 221.605469 45.859375 C 217.582031 45.859375 213.554688 45.859375 209.53125 45.859375 C 208.363281 45.859375 201.921875 45.78125 201.921875 47.761719 C 201.921875 49.695312 208.703125 49.664062 209.53125 49.664062 C 213.867188 49.664062 218.203125 49.664062 222.535156 49.664062 L 222.558594 49.75 C 225.167969 60.46875 227.402344 71.570312 231.941406 81.644531 C 233.535156 85.175781 235.488281 88.875 238.488281 91.414062 C 242.4375 94.75 247.574219 95.265625 252.554688 95.414062 C 253.714844 95.445312 260.167969 95.46875 260.167969 93.511719 C 260.167969 92.34375 257.734375 91.902344 255.605469 91.730469 Z M 255.605469 91.730469 "/>
<path fill-rule="nonzero" fill="rgb(0%, 0%, 0%)" fill-opacity="1" d="M 164.273438 91.921875 C 164.253906 91.910156 164.222656 91.898438 164.183594 91.882812 C 164.183594 91.882812 164.191406 91.882812 164.195312 91.882812 C 163.144531 91.417969 162.109375 90.75 161.117188 89.8125 C 159.863281 88.621094 158.753906 87.089844 157.828125 85.5625 C 157.75 85.4375 157.675781 85.308594 157.601562 85.179688 C 157.441406 84.910156 157.285156 84.640625 157.140625 84.371094 C 157.066406 84.242188 156.996094 84.109375 156.925781 83.976562 C 155.5625 81.433594 154.789062 79.273438 154.789062 79.273438 C 154.789062 79.273438 154.789062 79.28125 154.796875 79.289062 C 154.566406 78.710938 154.34375 78.132812 154.125 77.550781 C 150.542969 67.933594 148.421875 57.789062 145.945312 47.851562 C 143.613281 38.503906 141.566406 29.023438 138.394531 19.910156 C 136.292969 13.867188 133.523438 6.628906 127.839844 3.058594 C 121.609375 -0.851562 110.761719 -0.957031 104.292969 2.417969 C 103.152344 3.011719 102.136719 3.746094 101.203125 4.582031 C 101.222656 4.574219 101.246094 4.558594 101.265625 4.550781 C 102.667969 3.863281 109.914062 0.542969 115.550781 5.890625 C 119.410156 9.554688 121.882812 16.429688 121.882812 16.429688 C 121.882812 16.429688 121.867188 16.40625 121.84375 16.367188 C 122.078125 16.960938 122.3125 17.554688 122.53125 18.152344 C 126.117188 27.769531 128.234375 37.914062 130.714844 47.851562 C 133.046875 57.199219 135.09375 66.679688 138.265625 75.789062 C 140.367188 81.835938 143.136719 89.074219 148.820312 92.640625 C 155.050781 96.554688 165.898438 96.65625 172.367188 93.28125 C 173.5 92.691406 174.515625 91.964844 175.445312 91.128906 C 175.429688 91.136719 175.414062 91.148438 175.402344 91.152344 C 174.253906 91.71875 169.175781 94.046875 164.273438 91.921875 Z M 164.273438 91.921875 "/>
<path fill-rule="nonzero" fill="rgb(0%, 0%, 0%)" fill-opacity="1" d="M 186.425781 14.007812 C 185.859375 15.324219 185.34375 16.683594 184.820312 18.074219 C 181.175781 27.765625 179.027344 37.984375 176.464844 47.992188 C 174.007812 57.574219 171.914062 67.320312 168.570312 76.644531 C 167.28125 80.242188 165.816406 83.871094 163.628906 87.027344 C 163.117188 87.765625 163.019531 87.75 162.410156 88.417969 C 167.683594 93.273438 175.433594 90.523438 176.792969 89.347656 C 179.960938 85.949219 181.746094 82.128906 183.335938 77.910156 C 186.980469 68.222656 189.128906 58 191.691406 47.992188 C 194.148438 38.410156 196.242188 28.664062 199.585938 19.339844 C 200.601562 16.511719 201.730469 13.667969 203.230469 11.042969 C 199.929688 9.410156 192.429688 8.472656 186.425781 14.007812 Z M 186.425781 14.007812 "/>
<path fill-rule="nonzero" fill="rgb(0%, 0%, 0%)" fill-opacity="1" d="M 278.082031 24.351562 L 293.847656 24.351562 L 293.847656 33.257812 L 278.082031 33.257812 L 278.082031 72.164062 C 278.082031 78.0625 278.738281 81.789062 280.050781 83.351562 C 281.945312 85.519531 286.570312 86.601562 293.925781 86.601562 L 293.925781 95.242188 C 282.371094 95.242188 274.917969 93.117188 271.566406 88.867188 C 269.441406 86.179688 268.378906 80.613281 268.378906 72.164062 L 268.378906 33.257812 L 260.675781 33.257812 L 260.675781 24.351562 L 268.378906 24.351562 L 268.378906 8.289062 L 278.082031 8.289062 Z M 309.054688 24.351562 L 318.757812 24.351562 L 318.757812 93.820312 L 309.054688 93.820312 Z M 308.773438 5.804688 L 319.039062 5.804688 L 319.039062 16.070312 L 308.773438 16.070312 Z M 387.230469 24.351562 L 363.886719 93.820312 L 353.699219 93.820312 L 330.355469 24.351562 L 340.621094 24.351562 L 352.292969 59.148438 C 353 61.460938 354.082031 64.976562 355.542969 69.695312 C 356.957031 74.363281 358.042969 77.898438 358.792969 80.304688 C 359.644531 77.578125 360.734375 74.039062 362.058594 69.695312 C 363.796875 64.039062 364.878906 60.503906 365.308594 59.085938 L 376.980469 24.351562 Z M 437.75 54.632812 C 437.695312 46.050781 436.867188 40.296875 435.265625 37.367188 C 433.148438 33.503906 428.71875 31.570312 421.96875 31.570312 C 415.226562 31.570312 410.796875 33.503906 408.671875 37.367188 C 407.066406 40.296875 406.238281 46.050781 406.1875 54.632812 Z M 446.234375 90.914062 C 436.753906 93.75 428.664062 95.164062 421.96875 95.164062 L 421.90625 95.164062 L 421.90625 95.242188 C 410.488281 95.242188 403.054688 91.703125 399.609375 84.617188 C 397.492188 80.285156 396.4375 71.773438 396.4375 59.085938 C 396.4375 46.398438 397.492188 37.863281 399.609375 33.476562 C 403.054688 26.445312 410.507812 22.929688 421.96875 22.929688 C 432.675781 22.929688 439.867188 25.972656 443.546875 32.054688 C 446.097656 36.347656 447.421875 43.875 447.515625 54.632812 L 447.515625 63.539062 L 406.1875 63.539062 C 406.238281 72.125 407.066406 77.878906 408.671875 80.804688 C 410.796875 84.671875 415.207031 86.601562 421.90625 86.601562 C 427.5625 86.75 435.671875 85.078125 446.234375 81.585938 Z M 258.550781 -12.863281 "/>
</svg>
