<?xml version="1.0" encoding="UTF-8" standalone="no"?>
<!-- Created with Inkscape (http://www.inkscape.org/) -->

<svg
   width="68.836105mm"
   height="68.835999mm"
   viewBox="0 0 68.836105 68.835999"
   version="1.1"
   id="svg1"
   inkscape:version="1.4 (e7c3feb100, 2024-10-09)"
   sodipodi:docname="logo.svg"
   xmlns:inkscape="http://www.inkscape.org/namespaces/inkscape"
   xmlns:sodipodi="http://sodipodi.sourceforge.net/DTD/sodipodi-0.dtd"
   xmlns="http://www.w3.org/2000/svg"
   xmlns:svg="http://www.w3.org/2000/svg">
  <sodipodi:namedview
     id="namedview1"
     pagecolor="#ffffff"
     bordercolor="#000000"
     borderopacity="0.25"
     inkscape:showpageshadow="2"
     inkscape:pageopacity="0.0"
     inkscape:pagecheckerboard="0"
     inkscape:deskcolor="#d1d1d1"
     inkscape:document-units="mm"
     inkscape:zoom="0.76603175"
     inkscape:cx="97.907169"
     inkscape:cy="184.71819"
     inkscape:window-width="2560"
     inkscape:window-height="1440"
     inkscape:window-x="0"
     inkscape:window-y="0"
     inkscape:window-maximized="1"
     inkscape:current-layer="layer1" />
  <defs
     id="defs1" />
  <g
     inkscape:label="Warstwa 1"
     inkscape:groupmode="layer"
     id="layer1"
     transform="translate(-70.581948,-114.082)">
    <g
       id="g1"
       transform="translate(83.017367,-24.233587)"
       style="fill:#3584e4">
      <path
         fill-rule="nonzero"
         fill="#000000"
         fill-opacity="1"
         d="m 6.8533329,184.39413 c -0.0062,-0.003 -0.013435,-0.006 -0.024805,-0.0103 0,0 0.00206,0 0.0031,0 -0.276986,-0.12299 -0.5519047,-0.29972 -0.8144209,-0.54777 -0.3317628,-0.31523 -0.625285,-0.72037 -0.8702312,-1.12448 -0.020672,-0.0331 -0.040308,-0.0672 -0.060978,-0.10128 -0.041341,-0.0724 -0.082682,-0.14263 -0.1209227,-0.21394 -0.019637,-0.0341 -0.03824,-0.0693 -0.056844,-0.10439 -0.3607014,-0.67283 -0.5663737,-1.24437 -0.5663737,-1.24437 0,0 0.00206,0.002 0.0031,0.004 -0.060979,-0.15296 -0.1198895,-0.30592 -0.1777671,-0.45992 -0.9115722,-2.44636 -1.4655435,-5.02191 -2.0897951,-7.55302 2.3068359,-0.41548 4.3738932,-1.52963 5.4280927,-3.84473 1.1503173,-2.52388 0.3679359,-5.60379 -1.7828371,-7.33702 -1.8138426,-1.46244 -4.1206785,-1.70739 -6.37067051,-1.70739 -1.77353509,0 -8.28889959,0 -9.77304729,0 -0.282153,0 -2.011246,-0.0134 -2.014347,0.50333 v 24.16183 c -0.0052,0.72037 4.0204265,0.74931 4.0266279,0 0.048576,-7.0466 0,-23.6585 0,-23.6585 0,0 7.3504556,0 7.95920389,0 0.1178224,0 0.24184583,-0.008 0.36070143,0 0.04134114,0.0155 0.21704114,0.0537 0.2780194,0.0724 2.31820448,0.73897 3.83232418,3.07681 3.82922348,5.46426 -0.00206,1.36116 -0.4578532,2.69338 -1.3342855,3.74034 -0.434082,0.5178 -0.9611815,0.98185 -1.5502929,1.31465 -0.27698572,0.15606 -0.58704431,0.30076 -0.8909016,0.39481 -0.0578776,0.0186 -0.20877291,0.0444 -0.28835455,0.0641 -1.22989895,0 -2.45876465,0 -3.68866365,0 -0.3079916,0 -2.0133138,-0.0207 -2.0133138,0.50332 0,0.5116 1.7942058,0.50333 2.0133138,0.50333 h 1.8262449 c 0.5694744,2.31717 1.09450691,4.65812 1.87895521,6.91224 0.557072,1.5999 1.28984369,3.51503 2.79362799,4.45865 1.6484782,1.03559 4.5185872,1.06246 6.2301106,0.16949 0.2997231,-0.15606 0.5674071,-0.3483 0.8133868,-0.56947 -0.0031,0.002 -0.00723,0.005 -0.010335,0.006 -0.304891,0.14883 -1.6495117,0.76585 -2.944523,0.20361 z m 0,0"
         id="path1"
         style="stroke-width:0.264583;fill:#3584e4" />
      <path
         fill-rule="nonzero"
         fill="#000000"
         fill-opacity="1"
         d="m 13.934037,161.81359 c -0.833024,0.89917 -1.227831,1.93063 -1.645377,3.04168 -0.964282,2.56418 -1.532723,5.26789 -2.211751,7.91579 -0.6500899,2.53525 -1.2040612,5.1139 -2.0887618,7.58094 -0.2594154,0.72553 -0.54777,1.45624 -0.9260416,2.13216 0.5343345,0.33383 2.5362794,0.82269 4.0483314,-0.68936 0.56224,-0.56224 0.694532,-0.95911 1.070736,-1.91306 0.794784,-2.32027 1.316715,-4.73873 1.925465,-7.11068 0.649054,-2.53524 1.203026,-5.1139 2.087726,-7.58093 0.341064,-0.95188 0.728639,-1.91203 1.307415,-2.74712 0.135393,-0.19534 0.158128,-0.19017 0.31936,-0.36794 -1.410766,-1.29707 -3.564641,-0.56637 -3.887102,-0.26148 z m 0,0"
         id="path2"
         style="stroke-width:0.264583;fill:#3584e4" />
      <path
         fill-rule="nonzero"
         fill="#000000"
         fill-opacity="1"
         d="m 55.193534,184.34348 c -0.0279,-0.0186 -0.321429,-0.092 -0.57981,-0.29765 -0.317294,-0.25218 -0.584978,-0.56638 -0.820621,-0.89297 -0.607716,-0.84129 -1.006658,-1.82108 -1.35599,-2.79156 -0.891934,-2.47944 -1.443839,-5.07566 -2.080493,-7.62744 -0.617016,-2.47324 -1.158586,-4.98161 -1.99781,-7.39283 -0.55604,-1.59887 -1.288812,-3.514 -2.792595,-4.45865 -1.648479,-1.03456 -4.518589,-1.06246 -6.230112,-0.1695 -0.300755,0.1571 -0.570508,0.3514 -0.81752,0.57258 0.0052,-0.002 0.01138,-0.006 0.01654,-0.008 0.371036,-0.1819 2.288233,-1.0604 3.779615,0.3545 1.02216,0.96945 1.67535,2.78846 1.67535,2.78846 0,0 -0.0041,-0.006 -0.01035,-0.0165 0.06304,0.15709 0.124023,0.31419 0.181901,0.47232 0.886767,2.37401 1.433502,4.87102 2.036051,7.33082 -1.064536,0 -2.130103,0 -3.194638,0 -0.309025,0 -2.013315,-0.0207 -2.013315,0.50332 0,0.5116 1.794206,0.50333 2.013315,0.50333 1.147218,0 2.294433,0 3.440618,0 l 0.0062,0.0227 c 0.690399,2.836 1.281576,5.77329 2.482538,8.43876 0.42168,0.93431 0.938443,1.91306 1.732193,2.58486 1.044898,0.88263 2.403988,1.01906 3.721737,1.05833 0.306957,0.008 2.014347,0.0145 2.014347,-0.50333 0,-0.30902 -0.64389,-0.42581 -1.207161,-0.47129 z m 0,0"
         id="path3"
         style="stroke-width:0.264583;fill:#3584e4" />
      <path
         fill-rule="nonzero"
         fill="#000000"
         fill-opacity="1"
         d="m 31.028602,184.39413 c -0.0052,-0.003 -0.01344,-0.006 -0.02376,-0.0103 0,0 0.0021,0 0.0031,0 -0.278019,-0.12299 -0.551905,-0.29972 -0.814419,-0.54777 -0.331764,-0.31523 -0.625285,-0.72037 -0.870234,-1.12448 -0.02066,-0.0331 -0.04031,-0.0672 -0.05994,-0.10128 -0.04237,-0.0713 -0.08371,-0.14263 -0.121957,-0.21394 -0.01963,-0.0341 -0.03824,-0.0693 -0.05684,-0.10439 -0.360701,-0.67283 -0.56534,-1.24437 -0.56534,-1.24437 0,0 0,0.002 0.0021,0.004 -0.06098,-0.15296 -0.119888,-0.30592 -0.177766,-0.45992 -0.947745,-2.54454 -1.508953,-5.22862 -2.16421,-7.85791 -0.617016,-2.47324 -1.158584,-4.98161 -1.99781,-7.39283 -0.556038,-1.59887 -1.288809,-3.514 -2.792595,-4.45865 -1.648476,-1.03456 -4.518586,-1.06246 -6.230109,-0.1695 -0.301792,0.1571 -0.570508,0.3514 -0.817521,0.57258 0.0052,-0.002 0.01138,-0.006 0.01654,-0.008 0.371036,-0.1819 2.28823,-1.0604 3.779612,0.3545 1.021128,0.96945 1.67535,2.78846 1.67535,2.78846 0,0 -0.0041,-0.006 -0.01034,-0.0165 0.06201,0.1571 0.124023,0.3142 0.181901,0.47233 0.94878,2.54454 1.50895,5.22862 2.165241,7.85792 0.617017,2.47323 1.158587,4.9816 1.997811,7.39179 0.55604,1.5999 1.288812,3.51503 2.792595,4.45864 1.648478,1.0356 4.518588,1.06247 6.230112,0.1695 0.299722,-0.15606 0.568439,-0.3483 0.814419,-0.56947 -0.0041,0.002 -0.0083,0.005 -0.01138,0.006 -0.303856,0.14986 -1.647444,0.76585 -2.944522,0.20361 z m 0,0"
         id="path4"
         style="stroke-width:0.264583;fill:#3584e4" />
      <path
         fill-rule="nonzero"
         fill="#000000"
         fill-opacity="1"
         d="m 36.889742,163.77936 c -0.149863,0.3483 -0.286287,0.70797 -0.424781,1.07591 -0.964282,2.56418 -1.532723,5.26789 -2.210718,7.91579 -0.650089,2.53525 -1.204061,5.1139 -2.088761,7.58094 -0.341064,0.95188 -0.728636,1.91202 -1.307412,2.74711 -0.135393,0.19534 -0.161232,0.19121 -0.322461,0.36794 1.395262,1.28468 3.445782,0.55707 3.805452,0.24598 0.838192,-0.89917 1.310513,-1.90996 1.731161,-3.02617 0.964281,-2.56315 1.532723,-5.2679 2.210718,-7.9158 0.650089,-2.53524 1.20406,-5.1139 2.088761,-7.58093 0.268716,-0.74827 0.567407,-1.50068 0.964282,-2.19521 -0.873332,-0.43202 -2.857707,-0.68007 -4.446241,0.78444 z m 0,0"
         id="path5"
         style="stroke-width:0.264583;fill:#3584e4" />
    </g>
    <rect
       style="opacity:0.5;fill:#3584e4;stroke-width:0.79375;stroke-linecap:round;fill-opacity:0"
       id="rect1"
       width="68.835999"
       height="68.835999"
       x="70.582001"
       y="114.082" />
  </g>
</svg>
